<svg width="56" height="56" viewBox="0 0 56 56" fill="none" xmlns="http://www.w3.org/2000/svg">
<path d="M0 12C0 5.37258 5.37258 0 12 0H44C50.6274 0 56 5.37258 56 12V44C56 50.6274 50.6274 56 44 56H12C5.37258 56 0 50.6274 0 44V12Z" fill="url(#paint0_linear_3273_435)"/>
<path d="M31.6631 12.8157C32.469 12.8158 33.2417 13.1364 33.8115 13.7063L36.3389 16.2327C36.6808 16.5745 37.1444 16.7668 37.6279 16.7668H41.3096C43.6923 16.7668 44.8838 16.7671 45.7939 17.2307C46.5946 17.6386 47.2464 18.2895 47.6543 19.0901C48.1179 20.0002 48.1172 21.1918 48.1172 23.5745V37.0081C48.1172 39.3907 48.1179 40.5823 47.6543 41.4924C47.2464 42.293 46.5946 42.9439 45.7939 43.3518C44.8838 43.8154 43.6922 43.8157 41.3096 43.8157H14.8076C12.4248 43.8157 11.2334 43.8155 10.3232 43.3518C9.52265 42.9439 8.8718 42.293 8.46387 41.4924C8.00013 40.5823 8 39.3909 8 37.0081V23.5745C8 21.1916 8.00018 20.0002 8.46387 19.0901C8.87178 18.2895 9.52268 17.6386 10.3232 17.2307C11.2334 16.767 12.4248 16.7668 14.8076 16.7668H18.1855C18.6692 16.7668 19.1336 16.5746 19.4756 16.2327L22.002 13.7063C22.5719 13.1363 23.3453 12.8157 24.1514 12.8157H31.6631ZM28.0586 21.0217C23.2751 21.0219 19.3977 24.8994 19.3975 29.6829C19.3975 34.4665 23.275 38.3448 28.0586 38.345C32.8424 38.345 36.7207 34.4666 36.7207 29.6829C36.7205 24.8993 32.8422 21.0217 28.0586 21.0217Z" fill="url(#paint1_linear_3273_435)"/>
<path d="M11.6471 14.3353C11.6471 13.8318 12.0553 13.4236 12.5589 13.4236H14.8062C15.111 13.4236 15.3957 13.5759 15.5648 13.8296L16.1727 14.7414C16.5766 15.3473 16.1423 16.1589 15.414 16.1589H12.5589C12.0553 16.1589 11.6471 15.7507 11.6471 15.2471V14.3353Z" fill="#2D2C2D"/>
<circle cx="41.7355" cy="22.8453" r="2.07353" fill="#DC2626" stroke="#F1F4F6" stroke-width="0.5"/>
<defs>
<linearGradient id="paint0_linear_3273_435" x1="28" y1="0" x2="28" y2="56" gradientUnits="userSpaceOnUse">
<stop stop-color="#F5F5F5"/>
<stop offset="1" stop-color="#DDE2E7"/>
</linearGradient>
<linearGradient id="paint1_linear_3273_435" x1="28.0586" y1="12.8157" x2="28.0586" y2="43.8157" gradientUnits="userSpaceOnUse">
<stop stop-color="#2D2D2D"/>
<stop offset="1" stop-color="#2D2C2E"/>
</linearGradient>
</defs>
</svg>
